HIERARCHY
ROOT Hips
{
	OFFSET 0.00000 0.00000 0.00000
	CHANNELS 6 Xposition Yposition Zposition Zrotation Yrotation Xrotation 
	JOINT LHipJoint
	{
		OFFSET 0 0 0
		CHANNELS 3 Zrotation Yrotation Xrotation
		JOINT LeftHip
		{
			OFFSET 1.58895 -1.83665 0.71753
			CHANNELS 3 Zrotation Yrotation Xrotation
			JOINT LeftKnee
			{
				OFFSET 2.50528 -6.88321 0.00000
				CHANNELS 3 Zrotation Yrotation Xrotation
				JOINT LeftAnkle
				{
					OFFSET 2.63244 -7.23257 0.00000
					CHANNELS 3 Zrotation Yrotation Xrotation
					JOINT LeftToe
					{
						OFFSET 0.23691 -0.65090 1.72750
						CHANNELS 3 Zrotation Yrotation Xrotation
						End Site
						{
							OFFSET 0.00000 -0.00000 0.92561
						}
					}
				}
			}
		}
	}
	JOINT RHipJoint
	{
		OFFSET 0 0 0
		CHANNELS 3 Zrotation Yrotation Xrotation
		JOINT RightHip
		{
			OFFSET -1.51435 -1.83665 0.71753
			CHANNELS 3 Zrotation Yrotation Xrotation
			JOINT RightKnee
			{
				OFFSET -2.54551 -6.99375 0.00000
				CHANNELS 3 Zrotation Yrotation Xrotation
				JOINT RightAnkle
				{
					OFFSET -2.66027 -7.30903 0.00000
					CHANNELS 3 Zrotation Yrotation Xrotation
					JOINT RightToe
					{
						OFFSET -0.22981 -0.63138 2.03959
						CHANNELS 3 Zrotation Yrotation Xrotation
						End Site
						{
							OFFSET -0.00000 -0.00000 1.07060
						}
					}
				}
			}
		}
	}
	JOINT lowerback
	{
		OFFSET 0 0 0
		CHANNELS 3 Zrotation Yrotation Xrotation
		JOINT Chest
		{
			OFFSET -0.02651 1.86275 -0.11152
			CHANNELS 3 Zrotation Yrotation Xrotation
			JOINT Chest2
			{
				OFFSET 0.01019 1.86224 0.04087
				CHANNELS 3 Zrotation Yrotation Xrotation
				JOINT lowerneck
				{
					OFFSET 0 0 0
					CHANNELS 3 Zrotation Yrotation Xrotation
					JOINT Neck
					{
						OFFSET -0.01926 1.80512 0.08867
						CHANNELS 3 Zrotation Yrotation Xrotation
						JOINT Head
						{
							OFFSET 0.05516 1.76451 -0.38475
							CHANNELS 3 Zrotation Yrotation Xrotation
							End Site
							{
								OFFSET 0.01592 1.82587 -0.14001
							}
						}
					}
				}
				JOINT LeftCollar
				{
					OFFSET 0 0 0
					CHANNELS 3 Zrotation Yrotation Xrotation
					JOINT LeftShoulder
					{
						OFFSET 3.47116 1.51376 0.14491
CHANNELS 3 Zrotation Xrotation Yrotation
						JOINT LeftElbow
						{
OFFSET 0 -4.780950 0.000000
CHANNELS 3 Zrotation Xrotation Yrotation
							JOINT LeftWrist
							{
OFFSET 0 -3.586150 -0.000000
CHANNELS 3 Zrotation Xrotation Yrotation
								JOINT lhand
								{
									OFFSET 0 0 0
CHANNELS 3 Zrotation Xrotation Yrotation
									JOINT LFingers
									{
OFFSET 0 -0.659810 0.000000
CHANNELS 3 Zrotation Xrotation Yrotation
										End Site
										{
OFFSET 0 -0.531960 0.000000
										}
									}
								}
								JOINT LThumb
								{
OFFSET 0 0.000000 0.000000
CHANNELS 3 Zrotation Xrotation Yrotation
									End Site
									{
OFFSET 0 -0.540080 0.540080
									}
								}
							}
						}
					}
				}
				JOINT RightCollar
				{
					OFFSET 0 0 0
					CHANNELS 3 Zrotation Yrotation Xrotation
					JOINT RightShoulder
					{
						OFFSET -3.31725 1.61216 0.35156
CHANNELS 3 Zrotation Xrotation Yrotation
						JOINT RightElbow
						{
OFFSET 0 -4.489130 0.000000
CHANNELS 3 Zrotation Xrotation Yrotation
							JOINT RightWrist
							{
OFFSET 0 -3.705100 0.000000
CHANNELS 3 Zrotation Xrotation Yrotation
								JOINT rhand
								{
									OFFSET 0 0 0
CHANNELS 3 Zrotation Xrotation Yrotation
									JOINT RFingers
									{
OFFSET 0 -0.449140 0.000000
CHANNELS 3 Zrotation Xrotation Yrotation
										End Site
										{
OFFSET 0 -0.362110 0.000000
										}
									}
								}
								JOINT RThumb
								{
OFFSET 0 0.000000 0.000000
CHANNELS 3 Zrotation Xrotation Yrotation
									End Site
									{
OFFSET 0 -0.367630 0.367630
									}
								}
							}
						}
					}
				}
			}
		}
	}
}
MOTION
Frames: 9
Frame Time: 0.008333333333333333
1.904941 17.655164 3.533503 -9.202180 -30.131236 23.321361 0.000000 0.000000 0.000000 -18.951778 16.488758 2.507764 6.027394 -14.454815 -45.091398 -0.811602 24.816217 11.539364 0.011539 -0.694261 -1.907908 0.000000 0.000000 0.000000 7.099701 22.191824 -12.692493 -0.926704 6.132653 -17.169837 0.953184 -17.822551 -0.827789 -0.026300 1.046927 -2.877919 -2.539564 -0.847249 31.358646 -2.269896 -2.351541 6.287835 -0.191647 -1.124324 -10.075160 8.825046 8.616689 -17.664616 -7.161924 10.900556 16.803853 -2.399565 4.935344 9.067361 0.000000 0.000000 0.000000 10.079885 -40.314486 -21.781041 62.022461 -56.807541 36.032698 46.485695 -91.144740 11.389365 0.000000 0.000000 0.000000 -7.125000 0.000000 0.000000 13.072458 13.973576 9.780536 0.000000 0.000000 0.000000 -13.015171 2.538158 69.159395 -106.816790 -58.903138 -74.510035 -45.215481 42.511953 60.948359 0.000000 0.000000 0.000000 7.125000 0.000000 0.000000 152.241552 -80.582314 156.942946
1.897636 17.649010 3.524997 -9.663183 -30.675580 23.527721 0.000000 0.000000 0.000000 -18.733720 17.130423 2.540223 6.083797 -14.509021 -45.317008 -0.812356 24.846419 11.564811 0.014454 -0.774866 -2.129482 0.000000 0.000000 0.000000 7.488653 22.495911 -12.794774 -0.915522 6.096512 -17.064768 0.900297 -17.480991 -0.369496 -0.026419 1.049583 -2.885253 -2.764679 -0.552227 31.367380 -2.234096 -2.051382 6.438969 -0.136439 -0.987567 -9.897535 8.623607 8.533406 -17.742741 -6.921558 10.741316 16.047287 -2.313249 4.884342 8.781246 0.000000 0.000000 0.000000 10.210885 -39.898553 -22.290321 65.792099 -57.658585 39.201012 46.470320 -88.570398 10.372587 0.000000 0.000000 0.000000 -7.125000 0.000000 0.000000 13.281631 15.357342 9.554214 0.000000 0.000000 0.000000 -13.070465 2.598111 69.234830 -108.869156 -58.607684 -76.264496 -44.711861 42.283373 60.277792 0.000000 0.000000 0.000000 7.125000 0.000000 0.000000 151.153311 -81.272409 155.642432
1.913541 17.633847 3.520609 -9.627389 -30.632144 23.882945 0.000000 0.000000 0.000000 -18.785632 16.680738 2.351132 6.141342 -14.563949 -45.546471 -0.837218 25.133173 11.657712 0.014701 -0.781935 -2.148996 0.000000 0.000000 0.000000 7.311193 22.287837 -13.403942 -0.909014 6.075446 -17.003336 0.874852 -17.296007 -0.205268 -0.020620 0.927116 -2.548345 -2.453724 -0.652140 31.006509 -2.291496 -2.070014 6.392520 -0.379253 -1.004938 -9.790180 8.224479 8.357314 -17.611433 -6.437021 10.501277 15.808698 -2.130741 4.804028 8.605019 0.000000 0.000000 0.000000 9.795304 -39.897716 -22.870168 67.725090 -58.039541 40.836379 46.122894 -87.982796 10.345033 0.000000 0.000000 0.000000 -7.125000 0.000000 0.000000 13.061519 15.474526 9.352761 0.000000 0.000000 0.000000 -12.978001 3.193797 68.959392 -111.142325 -58.241715 -78.201741 -44.679404 42.494048 59.978507 0.000000 0.000000 0.000000 7.125000 0.000000 0.000000 151.133673 -81.542405 155.479730
1.906068 17.626716 3.509951 -9.703785 -31.284602 24.192417 0.000000 0.000000 0.000000 -18.968802 16.976262 2.094572 6.169680 -14.590780 -45.658961 -0.867881 25.307753 11.589913 0.016634 -0.831982 -2.286699 0.000000 0.000000 0.000000 7.217990 22.520431 -13.809241 -0.918799 6.107299 -17.096001 0.841365 -17.181381 0.363185 -0.022584 0.968851 -2.663175 -2.811991 -0.255511 30.644250 -2.365264 -1.681262 6.205744 -0.406472 -0.816257 -9.822993 8.266751 8.216001 -17.244906 -6.348011 10.324394 16.210057 -2.142532 4.734551 8.661011 0.000000 0.000000 0.000000 8.996661 -40.232515 -23.485779 67.293893 -57.958533 40.470808 46.302449 -87.627954 10.329895 0.000000 0.000000 0.000000 -7.125000 0.000000 0.000000 13.181767 15.454525 9.449698 0.000000 0.000000 0.000000 -12.798082 3.760042 68.505514 -112.027200 -58.084900 -78.953500 -45.398365 43.136530 60.017191 0.000000 0.000000 0.000000 7.125000 0.000000 0.000000 153.067774 -81.353141 157.244496
1.902848 17.624136 3.507312 -9.555619 -31.605090 24.210313 0.000000 0.000000 0.000000 -19.155512 16.931003 2.053311 6.161523 -14.583057 -45.626690 -0.896332 25.417176 11.473018 0.016576 -0.830191 -2.281794 0.000000 0.000000 0.000000 7.058079 22.513547 -13.900856 -0.936701 6.164729 -17.263083 0.827775 -17.194450 0.731559 -0.032522 1.161633 -3.193712 -2.974457 -0.030348 30.527629 -2.478471 -1.461537 5.961999 -0.525570 -0.706468 -10.047879 8.759104 8.151327 -16.834935 -6.775594 10.263068 16.890498 -2.381577 4.691963 8.869254 0.000000 0.000000 0.000000 8.351469 -40.377036 -23.982734 66.110280 -57.728737 39.468726 46.641238 -87.733828 10.533044 0.000000 0.000000 0.000000 -7.125000 0.000000 0.000000 13.357611 15.097777 9.688758 0.000000 0.000000 0.000000 -12.712219 4.094474 68.090114 -111.793209 -58.126702 -78.754732 -45.747552 43.174389 60.202189 0.000000 0.000000 0.000000 7.125000 0.000000 0.000000 153.890180 -81.112531 158.070465
1.897096 17.627463 3.505863 -9.440809 -31.871984 23.991106 0.000000 0.000000 0.000000 -19.196186 16.958081 2.258019 6.128002 -14.551268 -45.493321 -0.936368 25.501950 11.234776 0.015889 -0.812906 -2.234247 0.000000 0.000000 0.000000 7.009869 22.610134 -13.661625 -0.944122 6.188445 -17.332120 0.821770 -17.192176 0.870346 -0.044564 1.360025 -3.740083 -3.092269 0.123211 30.751484 -2.599718 -1.336672 5.795081 -0.643219 -0.642710 -10.351734 9.196044 8.196931 -16.686842 -7.209474 10.346437 17.428084 -2.587427 4.709884 9.085112 0.000000 0.000000 0.000000 8.229763 -40.112870 -24.098819 65.443767 -57.594108 38.905425 46.982640 -88.520055 10.862714 0.000000 0.000000 0.000000 -7.125000 0.000000 0.000000 13.505794 14.563491 9.961486 0.000000 0.000000 0.000000 -12.826441 3.978268 67.913265 -110.989046 -58.267512 -78.071183 -45.536584 42.346282 60.507148 0.000000 0.000000 0.000000 7.125000 0.000000 0.000000 153.217310 -80.894203 157.608687
1.892884 17.632507 3.509024 -9.429410 -32.010073 23.637998 0.000000 0.000000 0.000000 -19.061452 17.056823 2.641196 6.084854 -14.510041 -45.321175 -0.957200 25.466137 11.022918 0.018557 -0.878111 -2.413452 0.000000 0.000000 0.000000 7.185783 22.610583 -13.238611 -0.938532 6.170530 -17.280148 0.805065 -17.048445 0.924860 -0.056476 1.532819 -4.216107 -3.028659 0.113907 31.008740 -2.704166 -1.356727 5.832117 -0.790762 -0.656153 -10.439374 9.412323 8.351083 -16.691798 -7.552483 10.585095 17.557776 -2.701936 4.797447 9.185488 0.000000 0.000000 0.000000 8.527982 -39.467321 -23.944162 65.680813 -57.642774 39.105656 47.188800 -89.884466 11.447897 0.000000 0.000000 0.000000 -7.125000 0.000000 0.000000 13.507898 13.707493 10.215715 0.000000 0.000000 0.000000 -13.356025 3.495708 68.097838 -110.354511 -58.375018 -77.531294 -45.237761 40.892878 60.901425 0.000000 0.000000 0.000000 7.125000 0.000000 0.000000 152.329205 -80.617878 157.000047
1.888934 17.637359 3.518909 -9.515990 -32.116020 23.300814 0.000000 0.000000 0.000000 -18.863588 17.271541 3.039452 6.044136 -14.471022 -45.158639 -0.972569 25.374308 10.793288 0.016526 -0.830614 -2.282987 0.000000 0.000000 0.000000 7.508566 22.494798 -12.855553 -0.921356 6.115303 -17.119463 0.768827 -16.731357 1.042328 -0.066915 1.668811 -4.591097 -2.911086 0.044409 31.016532 -2.754148 -1.412328 6.032548 -0.892825 -0.692091 -10.215424 9.495921 8.611693 -16.893226 -7.884721 10.984867 17.638132 -2.760766 4.947376 9.312440 0.000000 0.000000 0.000000 8.930493 -38.526897 -23.954346 66.828767 -57.870675 40.076621 47.598655 -92.116751 12.521295 0.000000 0.000000 0.000000 -7.125000 0.000000 0.000000 13.525733 12.122138 10.693232 0.000000 0.000000 0.000000 -14.450739 2.979043 68.536784 -110.372143 -58.372274 -77.546399 -45.590734 39.872699 61.495179 0.000000 0.000000 0.000000 7.125000 0.000000 0.000000 152.899879 -80.028664 157.790263
1.887026 17.641521 3.533522 -9.433169 -32.002571 23.026278 0.000000 0.000000 0.000000 -18.804390 17.244887 3.304689 6.011716 -14.439667 -45.028626 -0.974672 25.264611 10.653522 0.016206 -0.821394 -2.257569 0.000000 0.000000 0.000000 7.616861 22.236191 -12.679322 -0.896437 6.034265 -16.883933 0.742874 -16.422307 0.950063 -0.069185 1.696669 -4.668151 -2.665305 -0.129929 30.776295 -2.858346 -1.553427 6.140720 -1.099762 -0.768524 -9.983481 9.670358 8.861378 -16.896117 -8.249360 11.379707 17.860115 -2.851333 5.099257 9.462908 0.000000 0.000000 0.000000 9.165408 -36.997898 -24.736212 69.053561 -58.271197 41.965565 48.306537 -94.676744 13.562014 0.000000 0.000000 0.000000 -7.125000 0.000000 0.000000 13.726466 10.479832 11.340361 0.000000 0.000000 0.000000 -16.109233 2.993415 69.110297 -111.392437 -58.196552 -78.414062 -46.447604 39.817946 62.157942 0.000000 0.000000 0.000000 7.125000 0.000000 0.000000 154.326657 -79.269006 159.359912
